<?xml version="1.0" encoding="UTF-8"?>
<svg version="1.1" xmlns="http://www.w3.org/2000/svg" width="532" height="532">
<path d="M0 0 C31.68 0 63.36 0 96 0 C97 1 97 1 97.1241985 3.12475163 C97.12381878 4.07215385 97.12343906 5.01955608 97.12304783 5.99566746 C97.12503888 7.08447793 97.12702993 8.17328839 97.12908131 9.29509312 C97.12616847 10.50615615 97.12325563 11.71721917 97.12025452 12.96498108 C97.12110894 14.23990384 97.12196337 15.5148266 97.12284368 16.82838339 C97.12509104 20.38342628 97.12106409 23.93843933 97.11606562 27.49347842 C97.11176474 31.32103581 97.11320729 35.14859139 97.1139679 38.97615051 C97.11449336 45.61305709 97.1113442 52.24995387 97.10573006 58.88685799 C97.09761811 68.48281859 97.09500015 78.07877444 97.09374207 87.6747381 C97.09155106 103.24190166 97.08488968 118.80905999 97.07543945 134.3762207 C97.06626658 149.502197 97.05918514 164.62817188 97.05493164 179.75415039 C97.05466892 180.68583029 97.05440619 181.61751018 97.05413551 182.57742281 C97.05283051 187.25118239 97.05156679 191.92494199 97.05032361 196.5987016 C97.03994949 235.39913806 97.02232987 274.19956868 97 313 C94.03 313.33 91.06 313.66 88 314 C90.97 314.33 93.94 314.66 97 315 C97 347.67 97 380.34 97 414 C92.02761069 413.00552214 91.32289009 412.82779426 88.125 409.4375 C87.08279297 408.34308594 87.08279297 408.34308594 86.01953125 407.2265625 C84.25291161 405.27883872 82.52400132 403.30854373 80.8125 401.3125 C77.0671398 396.94721812 72.99338615 392.93619667 68.88208008 388.91918945 C66.00926408 386.09193894 63.27895527 383.20696053 60.65234375 380.1484375 C55.97696591 374.73511514 50.82498059 369.8120779 45.70117188 364.828125 C44.96576172 364.10367187 44.23035156 363.37921875 43.47265625 362.6328125 C42.47117554 361.65658936 42.47117554 361.65658936 41.44946289 360.66064453 C40 359 40 359 40 357 C39.01 356.67 38.02 356.34 37 356 C35.38671875 354.36328125 35.38671875 354.36328125 33.6875 352.3125 C31.41239335 349.61625658 29.1077983 347.06776258 26.5625 344.625 C24 342 24 342 24 340 C23.401875 339.731875 22.80375 339.46375 22.1875 339.1875 C20.00152146 338.00082594 18.58667406 336.90400887 17 335 C17 334.34 17 333.68 17 333 C16.34 333 15.68 333 15 333 C13.2734375 331.3203125 13.2734375 331.3203125 11.375 329.125 C10.42753906 328.04605469 10.42753906 328.04605469 9.4609375 326.9453125 C8 325 8 325 8 323 C7.401875 322.731875 6.80375 322.46375 6.1875 322.1875 C3.92426639 320.95888747 2.48459423 320.10968654 1 318 C1.3125 315.3125 1.3125 315.3125 2 313 C1.34 313 0.68 313 0 313 C0 209.71 0 106.42 0 0 Z " fill="#0097B1" transform="translate(75,118)"/>
<path d="M0 0 C118.47 0 236.94 0 359 0 C359 0.99 359 1.98 359 3 C356.875 4.61328125 356.875 4.61328125 354 6.3125 C349.629177 8.96319266 345.55542882 11.75108267 341.55859375 14.93359375 C340 16 340 16 338 16 C338 16.66 338 17.32 338 18 C335.9453125 19.48046875 335.9453125 19.48046875 333.125 21.1875 C328.26515814 24.18010637 323.60929391 27.35643403 318.99609375 30.71484375 C317 32 317 32 315 32 C314.67 32.99 314.34 33.98 314 35 C311.9609375 36.68359375 311.9609375 36.68359375 309.375 38.4375 C308.46492188 39.05625 307.55484375 39.675 306.6171875 40.3125 C304.60290013 41.61126439 302.60899061 42.80732321 300.5 43.9375 C297.65001782 45.50629753 295.25594451 47.36361489 292.75 49.4375 C287.12433616 54.04813581 281.1368909 58.0629945 275.11474609 62.13476562 C269.46693404 65.96462199 263.99039301 69.9404892 258.56640625 74.08203125 C255.50429231 76.37046039 252.33808912 78.45661786 249.13671875 80.54296875 C246.88007989 82.08177367 244.75942201 83.73374013 242.625 85.4375 C238.50107829 88.70919271 234.17234586 91.49531585 229.67578125 94.2265625 C227.17526376 95.88383978 224.93489862 97.70569015 222.65356445 99.6484375 C219.55117996 102.18421198 216.23921714 104.42161569 212.9375 106.6875 C212.24333984 107.17283203 211.54917969 107.65816406 210.83398438 108.15820312 C207.32851226 110.5717523 204.07407037 112.64197654 200 114 C200 114.66 200 115.32 200 116 C195.67313931 117.06320066 191.46824205 117.14033838 187.04046631 117.12698364 C186.24469059 117.12854363 185.44891488 117.13010362 184.62902474 117.13171089 C181.9658804 117.1356956 179.30279319 117.13254108 176.63964844 117.12939453 C174.72922736 117.13074965 172.81880655 117.13253021 170.90838623 117.13470459 C165.72282362 117.13926453 160.5372809 117.13749559 155.35171795 117.1343255 C149.93095025 117.13179596 144.51018427 117.13414097 139.0894165 117.13571167 C129.99027195 117.137531 120.89113551 117.13513259 111.79199219 117.13037109 C101.25765069 117.12492239 90.72332853 117.12669649 80.18898749 117.1321975 C71.15370001 117.13672757 62.11841837 117.1373799 53.08313012 117.13475883 C47.68238778 117.13319631 42.28165454 117.13300175 36.88091278 117.13629532 C31.80843952 117.13917271 26.73599135 117.1372008 21.66352081 117.13140106 C19.79659568 117.13007303 17.92966845 117.1304683 16.06274414 117.13266373 C13.52566679 117.13537339 10.98867118 117.13199647 8.45159912 117.12698364 C7.32881833 117.13032973 7.32881833 117.13032973 6.18335509 117.13374341 C1.11415029 117.11415029 1.11415029 117.11415029 0 116 C0 77.72 0 39.44 0 0 Z M196 4 C196 33.7 196 63.4 196 94 C196.33 94 196.66 94 197 94 C197 64.3 197 34.6 197 4 C196.67 4 196.34 4 196 4 Z " fill="#0097B2" transform="translate(173,0)"/>
<path d="M0 0 C0.79265574 0.00393469 1.58531147 0.00786939 2.40198708 0.01192331 C5.06670917 0.02636605 7.73132335 0.04807299 10.39599609 0.06970215 C12.30287406 0.08147957 14.20975493 0.09279562 16.11663818 0.10368347 C20.22709582 0.1280853 24.33751608 0.15564457 28.44793701 0.18559265 C34.94312582 0.23277572 41.43834722 0.27226418 47.93359375 0.31054688 C62.89403737 0.399907 77.85441029 0.49942197 92.81478882 0.59899139 C106.52376444 0.69012805 120.23274486 0.77914626 133.94178581 0.85994673 C140.40299639 0.89832249 146.86414933 0.94165613 153.32530212 0.98873138 C157.33955474 1.01698008 161.35382442 1.04105375 165.36811066 1.06397438 C167.23420638 1.07549991 169.10029216 1.08878644 170.966362 1.10393333 C173.50719394 1.12432217 176.04798653 1.13851027 178.58886719 1.15112305 C179.70495582 1.16235191 179.70495582 1.16235191 180.84359169 1.17380762 C183.94629028 1.18343215 186.32561805 1.06516671 189.29443359 0.07556152 C192.32378132 0.01272659 195.32761011 0.00916027 198.35571289 0.05383301 C199.28274017 0.06344055 200.20976746 0.0730481 201.16488647 0.08294678 C204.23288511 0.11596089 207.30074242 0.15628417 210.36865234 0.19665527 C212.49428304 0.22095402 214.61991898 0.24479771 216.74555969 0.26820374 C222.34337333 0.331069 227.9410942 0.40012881 233.53881836 0.47045898 C239.24963146 0.54112033 244.9605104 0.60595046 250.67138672 0.67126465 C261.87914135 0.80030849 273.08680667 0.93589356 284.29443359 1.07556152 C283.48125869 5.18726373 282.06924405 6.33989949 278.66943359 8.82556152 C274.59595313 11.94567422 271.34691042 15.13224425 268.07958984 19.06384277 C265.40686611 22.07577433 262.38510505 24.64136713 259.34912109 27.27868652 C256.87882225 29.43902392 254.58598402 31.72672234 252.29443359 34.07556152 C244.03656253 42.48523169 244.03656253 42.48523169 240.54443359 45.26306152 C238.14841718 47.05605266 238.14841718 47.05605266 236.16943359 49.76306152 C233.78929744 52.74945877 231.03756189 54.96190728 228.04443359 57.32556152 C223.30770517 61.09716565 219.43131933 65.16180803 215.48193359 69.73181152 C212.7197008 72.69134666 209.65796013 74.97028327 206.41162109 77.36853027 C204.26241866 79.1013743 202.57123097 80.90464989 200.79443359 83.01306152 C200.25456566 83.63832009 199.71469772 84.26357866 199.15847015 84.90778446 C197.95651225 86.30559866 196.78652243 87.73187001 195.65824127 89.18980312 C191.57673995 93.70076336 188.03964821 95.52635608 182.07883358 95.96535313 C177.75317436 96.10908086 173.43955927 96.06608107 169.11279297 95.99963379 C167.16237195 95.99901366 165.21194712 96.00190879 163.26153564 96.00804138 C157.984732 96.01459005 152.70936646 95.97177245 147.43285942 95.91964459 C141.91074427 95.87325624 136.38861306 95.87158301 130.86633301 95.86485291 C121.60252903 95.84740494 112.33925616 95.80107234 103.07568359 95.73400879 C89.99339502 95.63933502 76.91130863 95.59604586 63.82873821 95.56337655 C46.3225819 95.51690376 28.8161965 95.45655377 11.31038666 95.33501625 C9.41121704 95.32245677 7.51203554 95.3115708 5.61284637 95.30243301 C3.03216212 95.28958541 0.45160158 95.27053372 -2.12902832 95.24964905 C-3.27106209 95.24583287 -3.27106209 95.24583287 -4.43616724 95.2419396 C-9.59121291 95.18991502 -9.59121291 95.18991502 -10.70556641 94.07556152 C-10.80080546 91.18413001 -10.83109668 88.31664088 -10.8190918 85.42492676 C-10.81923782 84.51769867 -10.81938385 83.61047058 -10.8195343 82.67575073 C-10.81883481 79.66186168 -10.81104075 76.6480336 -10.80322266 73.63415527 C-10.8013586 71.55050185 -10.79993464 69.46684799 -10.79893494 67.38319397 C-10.79510875 61.88732706 -10.7852776 56.39148639 -10.77423096 50.89562988 C-10.764019 45.29219925 -10.75943778 39.6887644 -10.75439453 34.08532715 C-10.74365543 23.08206038 -10.7265778 12.07881313 -10.70556641 1.07556152 C-7.07438382 -0.13483267 -3.77737122 -0.03800378 0 0 Z M185.29443359 82.07556152 C186.29443359 85.07556152 186.29443359 85.07556152 186.29443359 85.07556152 Z " fill="#0096B1" transform="translate(183.70556640625,214.9244384765625)"/>
<path d="M0 0 C0.66 0 1.32 0 2 0 C2 37.95 2 75.9 2 115 C65.69 115 129.38 115 195 115 C195 77.05 195 39.1 195 0 C249.12 0 303.24 0 359 0 C359 0.99 359 1.98 359 3 C356.875 4.61328125 356.875 4.61328125 354 6.3125 C349.629177 8.96319266 345.55542882 11.75108267 341.55859375 14.93359375 C340 16 340 16 338 16 C338 16.66 338 17.32 338 18 C335.9453125 19.48046875 335.9453125 19.48046875 333.125 21.1875 C328.26515814 24.18010637 323.60929391 27.35643403 318.99609375 30.71484375 C317 32 317 32 315 32 C314.67 32.99 314.34 33.98 314 35 C311.9609375 36.68359375 311.9609375 36.68359375 309.375 38.4375 C308.46492188 39.05625 307.55484375 39.675 306.6171875 40.3125 C304.60290013 41.61126439 302.60899061 42.80732321 300.5 43.9375 C297.65001782 45.50629753 295.25594451 47.36361489 292.75 49.4375 C287.12433616 54.04813581 281.1368909 58.0629945 275.11474609 62.13476562 C269.46693404 65.96462199 263.99039301 69.9404892 258.56640625 74.08203125 C255.50429231 76.37046039 252.33808912 78.45661786 249.13671875 80.54296875 C246.88007989 82.08177367 244.75942201 83.73374013 242.625 85.4375 C238.50107829 88.70919271 234.17234586 91.49531585 229.67578125 94.2265625 C227.17526376 95.88383978 224.93489862 97.70569015 222.65356445 99.6484375 C219.55117996 102.18421198 216.23921714 104.42161569 212.9375 106.6875 C212.24333984 107.17283203 211.54917969 107.65816406 210.83398438 108.15820312 C207.32851226 110.5717523 204.07407037 112.64197654 200 114 C200 114.66 200 115.32 200 116 C195.67313931 117.06320066 191.46824205 117.14033838 187.04046631 117.12698364 C186.24469059 117.12854363 185.44891488 117.13010362 184.62902474 117.13171089 C181.9658804 117.1356956 179.30279319 117.13254108 176.63964844 117.12939453 C174.72922736 117.13074965 172.81880655 117.13253021 170.90838623 117.13470459 C165.72282362 117.13926453 160.5372809 117.13749559 155.35171795 117.1343255 C149.93095025 117.13179596 144.51018427 117.13414097 139.0894165 117.13571167 C129.99027195 117.137531 120.89113551 117.13513259 111.79199219 117.13037109 C101.25765069 117.12492239 90.72332853 117.12669649 80.18898749 117.1321975 C71.15370001 117.13672757 62.11841837 117.1373799 53.08313012 117.13475883 C47.68238778 117.13319631 42.28165454 117.13300175 36.88091278 117.13629532 C31.80843952 117.13917271 26.73599135 117.1372008 21.66352081 117.13140106 C19.79659568 117.13007303 17.92966845 117.1304683 16.06274414 117.13266373 C13.52566679 117.13537339 10.98867118 117.13199647 8.45159912 117.12698364 C7.32881833 117.13032973 7.32881833 117.13032973 6.18335509 117.13374341 C1.11415029 117.11415029 1.11415029 117.11415029 0 116 C-0.09575309 114.49448826 -0.12188187 112.9844897 -0.12025452 111.47593689 C-0.12162918 110.49852036 -0.12300385 109.52110382 -0.12442017 108.5140686 C-0.12082489 107.43297821 -0.11722961 106.35188782 -0.11352539 105.23803711 C-0.11367142 104.1064769 -0.11381744 102.97491669 -0.1139679 101.80906677 C-0.11326819 98.04847329 -0.10547311 94.28792863 -0.09765625 90.52734375 C-0.09579227 87.92802457 -0.09436828 85.32870503 -0.09336853 82.72938538 C-0.08993341 76.57411423 -0.08204256 70.4188634 -0.07201904 64.26359993 C-0.06085694 57.25766654 -0.05534721 50.25173233 -0.05032361 43.24579227 C-0.03985992 28.83051867 -0.02226108 14.41525996 0 0 Z M196 4 C196 33.7 196 63.4 196 94 C196.33 94 196.66 94 197 94 C197 64.3 197 34.6 197 4 C196.67 4 196.34 4 196 4 Z " fill="#0096B1" transform="translate(173,0)"/>
<path d="M0 0 C31.68 0 63.36 0 96 0 C97 1 97 1 97.1241985 3.12475163 C97.12381878 4.07215385 97.12343906 5.01955608 97.12304783 5.99566746 C97.12503888 7.08447793 97.12702993 8.17328839 97.12908131 9.29509312 C97.12616847 10.50615615 97.12325563 11.71721917 97.12025452 12.96498108 C97.12110894 14.23990384 97.12196337 15.5148266 97.12284368 16.82838339 C97.12509104 20.38342628 97.12106409 23.93843933 97.11606562 27.49347842 C97.11176474 31.32103581 97.11320729 35.14859139 97.1139679 38.97615051 C97.11449336 45.61305709 97.1113442 52.24995387 97.10573006 58.88685799 C97.09761811 68.48281859 97.09500015 78.07877444 97.09374207 87.6747381 C97.09155106 103.24190166 97.08488968 118.80905999 97.07543945 134.3762207 C97.06626658 149.502197 97.05918514 164.62817188 97.05493164 179.75415039 C97.05466892 180.68583029 97.05440619 181.61751018 97.05413551 182.57742281 C97.05283051 187.25118239 97.05156679 191.92494199 97.05032361 196.5987016 C97.03994949 235.39913806 97.02232987 274.19956868 97 313 C94.03 313.33 91.06 313.66 88 314 C90.97 314.33 93.94 314.66 97 315 C97 347.67 97 380.34 97 414 C92.02761069 413.00552214 91.32289009 412.82779426 88.125 409.4375 C87.08279297 408.34308594 87.08279297 408.34308594 86.01953125 407.2265625 C84.25291161 405.27883872 82.52400132 403.30854373 80.8125 401.3125 C77.0671398 396.94721812 72.99338615 392.93619667 68.88208008 388.91918945 C66.00926408 386.09193894 63.27895527 383.20696053 60.65234375 380.1484375 C55.97696591 374.73511514 50.82498059 369.8120779 45.70117188 364.828125 C44.96576172 364.10367187 44.23035156 363.37921875 43.47265625 362.6328125 C42.47117554 361.65658936 42.47117554 361.65658936 41.44946289 360.66064453 C40 359 40 359 40 357 C39.01 356.67 38.02 356.34 37 356 C35.38671875 354.36328125 35.38671875 354.36328125 33.6875 352.3125 C31.41239335 349.61625658 29.1077983 347.06776258 26.5625 344.625 C24 342 24 342 24 340 C23.401875 339.731875 22.80375 339.46375 22.1875 339.1875 C20.00152146 338.00082594 18.58667406 336.90400887 17 335 C17 334.34 17 333.68 17 333 C16.34 333 15.68 333 15 333 C13.2734375 331.3203125 13.2734375 331.3203125 11.375 329.125 C10.42753906 328.04605469 10.42753906 328.04605469 9.4609375 326.9453125 C8 325 8 325 8 323 C7.401875 322.731875 6.80375 322.46375 6.1875 322.1875 C3.92426639 320.95888747 2.48459423 320.10968654 1 318 C1.3125 315.3125 1.3125 315.3125 2 313 C1.34 313 0.68 313 0 313 C0 209.71 0 106.42 0 0 Z M3 2 C3 103.97 3 205.94 3 311 C33.03 311 63.06 311 94 311 C94 209.03 94 107.06 94 2 C63.97 2 33.94 2 3 2 Z " fill="#0195B0" transform="translate(75,118)"/>
<path d="M0 0 C0.79265574 0.00393469 1.58531147 0.00786939 2.40198708 0.01192331 C5.06670917 0.02636605 7.73132335 0.04807299 10.39599609 0.06970215 C12.30287406 0.08147957 14.20975493 0.09279562 16.11663818 0.10368347 C20.22709582 0.1280853 24.33751608 0.15564457 28.44793701 0.18559265 C34.94312582 0.23277572 41.43834722 0.27226418 47.93359375 0.31054688 C62.89403737 0.399907 77.85441029 0.49942197 92.81478882 0.59899139 C106.52376444 0.69012805 120.23274486 0.77914626 133.94178581 0.85994673 C140.40299639 0.89832249 146.86414933 0.94165613 153.32530212 0.98873138 C157.33955474 1.01698008 161.35382442 1.04105375 165.36811066 1.06397438 C167.23420638 1.07549991 169.10029216 1.08878644 170.966362 1.10393333 C173.50719394 1.12432217 176.04798653 1.13851027 178.58886719 1.15112305 C179.70495582 1.16235191 179.70495582 1.16235191 180.84359169 1.17380762 C183.94629028 1.18343215 186.32561805 1.06516671 189.29443359 0.07556152 C192.32378132 0.01272659 195.32761011 0.00916027 198.35571289 0.05383301 C199.28274017 0.06344055 200.20976746 0.0730481 201.16488647 0.08294678 C204.23288511 0.11596089 207.30074242 0.15628417 210.36865234 0.19665527 C212.49428304 0.22095402 214.61991898 0.24479771 216.74555969 0.26820374 C222.34337333 0.331069 227.9410942 0.40012881 233.53881836 0.47045898 C239.24963146 0.54112033 244.9605104 0.60595046 250.67138672 0.67126465 C261.87914135 0.80030849 273.08680667 0.93589356 284.29443359 1.07556152 C283.48125869 5.18726373 282.06924405 6.33989949 278.66943359 8.82556152 C274.59595313 11.94567422 271.34691042 15.13224425 268.07958984 19.06384277 C265.40686611 22.07577433 262.38510505 24.64136713 259.34912109 27.27868652 C256.87882225 29.43902392 254.58598402 31.72672234 252.29443359 34.07556152 C244.03656253 42.48523169 244.03656253 42.48523169 240.54443359 45.26306152 C238.14841718 47.05605266 238.14841718 47.05605266 236.16943359 49.76306152 C233.78929744 52.74945877 231.03756189 54.96190728 228.04443359 57.32556152 C223.30770517 61.09716565 219.43131933 65.16180803 215.48193359 69.73181152 C212.7197008 72.69134666 209.65796013 74.97028327 206.41162109 77.36853027 C204.26241866 79.1013743 202.57123097 80.90464989 200.79443359 83.01306152 C200.25456566 83.63832009 199.71469772 84.26357866 199.15847015 84.90778446 C197.95651225 86.30559866 196.78652243 87.73187001 195.65824127 89.18980312 C191.57673995 93.70076336 188.03964821 95.52635608 182.07883358 95.96535313 C177.75317436 96.10908086 173.43955927 96.06608107 169.11279297 95.99963379 C167.16237195 95.99901366 165.21194712 96.00190879 163.26153564 96.00804138 C157.984732 96.01459005 152.70936646 95.97177245 147.43285942 95.91964459 C141.91074427 95.87325624 136.38861306 95.87158301 130.86633301 95.86485291 C121.60252903 95.84740494 112.33925616 95.80107234 103.07568359 95.73400879 C89.99339502 95.63933502 76.91130863 95.59604586 63.82873821 95.56337655 C46.3225819 95.51690376 28.8161965 95.45655377 11.31038666 95.33501625 C9.41121704 95.32245677 7.51203554 95.3115708 5.61284637 95.30243301 C3.03216212 95.28958541 0.45160158 95.27053372 -2.12902832 95.24964905 C-3.27106209 95.24583287 -3.27106209 95.24583287 -4.43616724 95.2419396 C-9.59121291 95.18991502 -9.59121291 95.18991502 -10.70556641 94.07556152 C-10.80080546 91.18413001 -10.83109668 88.31664088 -10.8190918 85.42492676 C-10.81923782 84.51769867 -10.81938385 83.61047058 -10.8195343 82.67575073 C-10.81883481 79.66186168 -10.81104075 76.6480336 -10.80322266 73.63415527 C-10.8013586 71.55050185 -10.79993464 69.46684799 -10.79893494 67.38319397 C-10.79510875 61.88732706 -10.7852776 56.39148639 -10.77423096 50.89562988 C-10.764019 45.29219925 -10.75943778 39.6887644 -10.75439453 34.08532715 C-10.74365543 23.08206038 -10.7265778 12.07881313 -10.70556641 1.07556152 C-7.07438382 -0.13483267 -3.77737122 -0.03800378 0 0 Z M-7.70556641 3.07556152 C-7.70556641 32.44556152 -7.70556641 61.81556152 -7.70556641 92.07556152 C-4.70304744 93.576821 -1.62016303 93.20903135 1.67214966 93.19581604 C2.44156635 93.19667046 3.21098305 93.19752489 4.0037154 93.19840521 C6.59559918 93.20005929 9.187419 93.19453979 11.77929688 93.18908691 C13.63178506 93.188805 15.48427336 93.18896286 17.33676147 93.18952942 C22.37781431 93.18981723 27.41884352 93.18392309 32.45989084 93.17695546 C37.72365608 93.17071926 42.98742182 93.17011791 48.25119019 93.16893005 C58.22426522 93.16581753 68.19732933 93.15760519 78.17039955 93.14758056 C91.64321249 93.13433104 105.1160284 93.12891888 118.58884621 93.12307835 C139.82405018 93.11366526 161.05923112 93.09374581 182.29443359 93.07556152 C182.29443359 63.37556152 182.29443359 33.67556152 182.29443359 3.07556152 C119.59443359 3.07556152 56.89443359 3.07556152 -7.70556641 3.07556152 Z M185.29443359 82.07556152 C186.29443359 85.07556152 186.29443359 85.07556152 186.29443359 85.07556152 Z " fill="#0196B0" transform="translate(183.70556640625,214.9244384765625)"/>
<path d="M0 0 C1.32 0.33 2.64 0.66 4 1 C4.02332977 15.97686306 4.04097956 30.95372472 4.05181217 45.93060207 C4.05697496 52.88416081 4.06401734 59.83770827 4.07543945 66.79125977 C4.08644694 73.49557209 4.09227621 80.19987025 4.09487724 86.90419197 C4.09673202 89.46837613 4.10035364 92.03255962 4.10573006 94.59673882 C4.11293659 98.17445158 4.11399111 101.75211519 4.11352539 105.32983398 C4.11712067 106.40157364 4.12071594 107.47331329 4.12442017 108.57752991 C4.1230455 109.54653229 4.12167084 110.51553467 4.12025452 111.51390076 C4.12117631 112.36102851 4.1220981 113.20815626 4.12304783 114.08095455 C4 116 4 116 3 117 C0.04753646 117.09526806 -2.88148421 117.12552452 -5.83422852 117.11352539 C-6.76096375 117.11367142 -7.68769897 117.11381744 -8.64251709 117.1139679 C-11.72133687 117.11326838 -14.80009697 117.10547421 -17.87890625 117.09765625 C-20.00740018 117.09579221 -22.13589453 117.09436824 -24.26438904 117.09336853 C-29.8786232 117.08954228 -35.49283168 117.07971108 -41.10705566 117.06866455 C-46.83113253 117.05845273 -52.55521353 117.0538714 -58.27929688 117.04882812 C-69.51954256 117.03808891 -80.75976915 117.0210112 -92 117 C-92.18359375 112.23144531 -92.18359375 112.23144531 -90.53125 110.1484375 C-89.52578125 109.27058594 -89.52578125 109.27058594 -88.5 108.375 C-84.3149809 104.4640441 -81.11515245 100.21808752 -77.81640625 95.55078125 C-75.18544979 91.85612627 -72.43223607 88.37761689 -69.15625 85.2265625 C-66.60764501 82.59485082 -64.43917876 79.74038758 -62.25 76.8125 C-58.6581108 72.07123276 -54.92182626 67.56360033 -50.91796875 63.16015625 C-48.21595574 60.11695219 -45.71967133 56.92436248 -43.19921875 53.73046875 C-40.69374075 50.61975983 -38.10092675 47.59327678 -35.5 44.5625 C-31.33648194 39.70231761 -27.49685322 34.70470421 -23.8515625 29.4375 C-22 27 -22 27 -19.546875 24.55078125 C-16.92108609 21.92096505 -14.80684933 19.19246577 -12.625 16.1875 C-9.3691655 11.77197864 -6.00705689 7.57718742 -2.3125 3.5234375 C-0.90662962 2.01741574 -0.90662962 2.01741574 0 0 Z " fill="#0097B1" transform="translate(168,0)"/>
<path d="M0 0 C31.68 0 63.36 0 96 0 C97 1 97 1 97.1241985 3.12475163 C97.12381878 4.07215385 97.12343906 5.01955608 97.12304783 5.99566746 C97.12503888 7.08447793 97.12702993 8.17328839 97.12908131 9.29509312 C97.12616847 10.50615615 97.12325563 11.71721917 97.12025452 12.96498108 C97.12110894 14.23990384 97.12196337 15.5148266 97.12284368 16.82838339 C97.12509104 20.38342628 97.12106409 23.93843933 97.11606562 27.49347842 C97.11176474 31.32103581 97.11320729 35.14859139 97.1139679 38.97615051 C97.11449336 45.61305709 97.1113442 52.24995387 97.10573006 58.88685799 C97.09761811 68.48281859 97.09500015 78.07877444 97.09374207 87.6747381 C97.09155106 103.24190166 97.08488968 118.80905999 97.07543945 134.3762207 C97.06626658 149.502197 97.05918514 164.62817188 97.05493164 179.75415039 C97.05466892 180.68583029 97.05440619 181.61751018 97.05413551 182.57742281 C97.05283051 187.25118239 97.05156679 191.92494199 97.05032361 196.5987016 C97.03994949 235.39913806 97.02232987 274.19956868 97 313 C94.03 313.33 91.06 313.66 88 314 C90.97 314.33 93.94 314.66 97 315 C97 347.67 97 380.34 97 414 C92.02761069 413.00552214 91.32289009 412.82779426 88.125 409.4375 C87.08279297 408.34308594 87.08279297 408.34308594 86.01953125 407.2265625 C84.25291161 405.27883872 82.52400132 403.30854373 80.8125 401.3125 C77.55569999 397.51664344 74.05388146 394.01376993 70.5 390.5 C66.4119812 386.45801745 62.4858445 382.3755098 58.765625 377.98828125 C55.0469754 373.8006869 50.99457235 369.92223603 47 366 C49 365 49 365 50.9375 365.625 C53 367 53 367 54.29296875 369.234375 C56.28054206 372.45451666 58.6958232 374.98926931 61.375 377.625 C61.84421875 378.10195313 62.3134375 378.57890625 62.796875 379.0703125 C65.00151753 381.26277468 67.08635441 383.05154394 69.76171875 384.6484375 C72 386 72 386 73.4375 389 C74.75399366 392.24368228 74.75399366 392.24368228 78 393.5 C81.83563872 395.41781936 82.10821737 397.21643473 84 401 C86.03619547 402.95084596 88.15397739 404.72318192 90.35546875 406.484375 C90.89816406 406.98453125 91.44085938 407.4846875 92 408 C92 408.66 92 409.32 92 410 C92.99 410 93.98 410 95 410 C94.67 379.64 94.34 349.28 94 318 C65.95 318.33 37.9 318.66 9 319 C12.37304155 327.10016276 12.37304155 327.10016276 19.1875 332 C21.79254647 333.43726702 22.10463019 335.24501596 23 338 C23.33 338.66 23.66 339.32 24 340 C21.13302508 338.71480435 19.02392288 337.42870746 17 335 C17 334.34 17 333.68 17 333 C16.34 333 15.68 333 15 333 C13.2734375 331.3203125 13.2734375 331.3203125 11.375 329.125 C10.42753906 328.04605469 10.42753906 328.04605469 9.4609375 326.9453125 C8 325 8 325 8 323 C7.401875 322.731875 6.80375 322.46375 6.1875 322.1875 C3.92426639 320.95888747 2.48459423 320.10968654 1 318 C1.3125 315.3125 1.3125 315.3125 2 313 C1.34 313 0.68 313 0 313 C0 209.71 0 106.42 0 0 Z M3 2 C3 103.97 3 205.94 3 311 C33.03 311 63.06 311 94 311 C94 209.03 94 107.06 94 2 C63.97 2 33.94 2 3 2 Z " fill="#0D6472" transform="translate(75,118)"/>
<path d="M0 0 C1.18603332 0.00484369 1.18603332 0.00484369 2.39602691 0.00978523 C5.05392755 0.02187977 7.71172586 0.04124861 10.36958313 0.06056213 C12.27147701 0.07070286 14.17337332 0.08039676 16.07527161 0.0896759 C21.24644999 0.11617752 26.41757208 0.14895285 31.58870673 0.1828258 C36.98991415 0.21714841 42.39115177 0.24574117 47.79238892 0.27493286 C58.02398831 0.33110607 68.25554989 0.39245777 78.48710805 0.4556542 C90.13385041 0.52734072 101.78062307 0.59327826 113.4274019 0.65872467 C137.38904395 0.79350086 161.35063869 0.93552343 185.31221008 1.08229065 C185.44308778 11.91362966 185.57351194 22.74497403 185.70336151 33.57632542 C185.76367376 38.60606718 185.82414061 43.63580699 185.88496399 48.6655426 C185.94368595 53.52197783 186.0019976 58.37841783 186.06002808 63.23486137 C186.08220897 65.08515027 186.10453623 66.93543742 186.12701416 68.78572273 C186.15853788 71.38270244 186.18953522 73.97968796 186.22041321 76.57667542 C186.22976395 77.33697052 186.23911469 78.09726562 186.24874878 78.88059998 C186.2652921 80.28915788 186.27993257 81.6977399 186.29232788 83.10634041 C186.31184977 85.04648161 186.34601129 86.9864578 186.38044739 88.9263916 C186.31221008 92.08229065 186.31221008 92.08229065 185.31221008 95.08229065 C159.90464029 95.10561656 134.49707209 95.12326831 109.08949375 95.13410282 C97.29320481 95.13926644 85.4969225 95.14631037 73.70063782 95.1577301 C63.42300011 95.16767495 53.14536722 95.1741436 42.86772484 95.17637914 C37.42219221 95.17768659 31.97667333 95.18077458 26.5311451 95.18802071 C21.41195799 95.19477778 16.29279038 95.19690825 11.17359924 95.19539833 C9.28893872 95.1956748 7.40427758 95.19768177 5.5196209 95.20149612 C2.95819572 95.2064285 0.3968454 95.20529064 -2.1645813 95.20254517 C-2.92040338 95.20545801 -3.67622545 95.20837085 -4.45495123 95.21137196 C-9.57366871 95.19641186 -9.57366871 95.19641186 -10.68778992 94.08229065 C-10.78302897 91.19085914 -10.81332019 88.32337001 -10.80131531 85.43165588 C-10.80146133 84.5244278 -10.80160736 83.61719971 -10.80175781 82.68247986 C-10.80105832 79.6685908 -10.79326426 76.65476272 -10.78544617 73.6408844 C-10.78358211 71.55723098 -10.78215815 69.47357711 -10.78115845 67.3899231 C-10.77733226 61.89405619 -10.76750112 56.39821552 -10.75645447 50.90235901 C-10.74624251 45.29892838 -10.74166129 39.69549352 -10.73661804 34.09205627 C-10.72587894 23.08878951 -10.70880131 12.08554226 -10.68778992 1.08229065 C-7.06263106 -0.12609564 -3.77126886 -0.03457076 0 0 Z M-7.68778992 3.08229065 C-7.68778992 32.45229065 -7.68778992 61.82229065 -7.68778992 92.08229065 C-4.68527096 93.58355013 -1.60238654 93.21576047 1.68992615 93.20254517 C2.45934284 93.20339959 3.22875953 93.20425402 4.02149189 93.20513433 C6.61337567 93.20678842 9.20519549 93.20126892 11.79707336 93.19581604 C13.64956155 93.19553413 15.50204984 93.19569198 17.35453796 93.19625854 C22.3955908 93.19654636 27.43662001 93.19065221 32.47766733 93.18368459 C37.74143257 93.17744839 43.00519831 93.17684704 48.26896667 93.17565918 C58.24204171 93.17254665 68.21510582 93.16433432 78.18817604 93.15430969 C91.66098898 93.14106016 105.13380489 93.13564801 118.6066227 93.12980747 C139.84182667 93.12039438 161.07700761 93.10047493 182.31221008 93.08229065 C182.31221008 63.38229065 182.31221008 33.68229065 182.31221008 3.08229065 C119.61221008 3.08229065 56.91221008 3.08229065 -7.68778992 3.08229065 Z " fill="#0D6171" transform="translate(183.6877899169922,214.91770935058594)"/>
<path d="M0 0 C11.94355615 0.10743128 23.88705093 0.22005042 35.83049488 0.33933926 C41.37598991 0.39456258 46.92149021 0.44798171 52.46704102 0.49731445 C57.81628257 0.54496662 63.16545932 0.59730985 68.51462364 0.65294075 C70.55799438 0.67336042 72.60138288 0.69207414 74.64478493 0.70907402 C77.50129254 0.73312651 80.35767748 0.76318008 83.21411133 0.79467773 C84.4883345 0.80331093 84.4883345 0.80331093 85.78829956 0.81211853 C89.10313002 0.8538137 91.83400182 0.94466727 95 2 C95 34.67 95 67.34 95 101 C90.02761069 100.00552214 89.32289009 99.82779426 86.125 96.4375 C85.08279297 95.34308594 85.08279297 95.34308594 84.01953125 94.2265625 C82.25291161 92.27883872 80.52400132 90.30854373 78.8125 88.3125 C75.55569999 84.51664344 72.05388146 81.01376993 68.5 77.5 C64.4119812 73.45801745 60.4858445 69.3755098 56.765625 64.98828125 C53.0469754 60.8006869 48.99457235 56.92223603 45 53 C47 52 47 52 48.9375 52.625 C51 54 51 54 52.29296875 56.234375 C54.28054206 59.45451666 56.6958232 61.98926931 59.375 64.625 C59.84421875 65.10195313 60.3134375 65.57890625 60.796875 66.0703125 C63.00151753 68.26277468 65.08635441 70.05154394 67.76171875 71.6484375 C70 73 70 73 71.4375 76 C72.75399366 79.24368228 72.75399366 79.24368228 76 80.5 C79.83563872 82.41781936 80.10821737 84.21643473 82 88 C84.03619547 89.95084596 86.15397739 91.72318192 88.35546875 93.484375 C89.16951172 94.23460937 89.16951172 94.23460937 90 95 C90 95.66 90 96.32 90 97 C90.99 97 91.98 97 93 97 C92.67 66.64 92.34 36.28 92 5 C63.95 5.33 35.9 5.66 7 6 C10.37304155 14.10016276 10.37304155 14.10016276 17.1875 19 C19.79254647 20.43726702 20.10463019 22.24501596 21 25 C21.33 25.66 21.66 26.32 22 27 C19.13302508 25.71480435 17.02392288 24.42870746 15 22 C15 21.34 15 20.68 15 20 C14.34 20 13.68 20 13 20 C11.2734375 18.3203125 11.2734375 18.3203125 9.375 16.125 C8.74335937 15.40570313 8.11171875 14.68640625 7.4609375 13.9453125 C6 12 6 12 6 10 C5.401875 9.731875 4.80375 9.46375 4.1875 9.1875 C1.92426639 7.95888747 0.48459423 7.10968654 -1 5 C-0.57421875 2.39453125 -0.57421875 2.39453125 0 0 Z " fill="#12788C" transform="translate(77,431)"/>
<path d="M0 0 C0.66 0 1.32 0 2 0 C2 37.95 2 75.9 2 115 C65.69 115 129.38 115 195 115 C195 77.05 195 39.1 195 0 C195.66 0 196.32 0 197 0 C197 37.62 197 75.24 197 114 C197.99 114 198.98 114 200 114 C200 114.66 200 115.32 200 116 C195.67313931 117.06320066 191.46824205 117.14033838 187.04046631 117.12698364 C186.24469059 117.12854363 185.44891488 117.13010362 184.62902474 117.13171089 C181.9658804 117.1356956 179.30279319 117.13254108 176.63964844 117.12939453 C174.72922736 117.13074965 172.81880655 117.13253021 170.90838623 117.13470459 C165.72282362 117.13926453 160.5372809 117.13749559 155.35171795 117.1343255 C149.93095025 117.13179596 144.51018427 117.13414097 139.0894165 117.13571167 C129.99027195 117.137531 120.89113551 117.13513259 111.79199219 117.13037109 C101.25765069 117.12492239 90.72332853 117.12669649 80.18898749 117.1321975 C71.15370001 117.13672757 62.11841837 117.1373799 53.08313012 117.13475883 C47.68238778 117.13319631 42.28165454 117.13300175 36.88091278 117.13629532 C31.80843952 117.13917271 26.73599135 117.1372008 21.66352081 117.13140106 C19.79659568 117.13007303 17.92966845 117.1304683 16.06274414 117.13266373 C13.52566679 117.13537339 10.98867118 117.13199647 8.45159912 117.12698364 C7.32881833 117.13032973 7.32881833 117.13032973 6.18335509 117.13374341 C1.11415029 117.11415029 1.11415029 117.11415029 0 116 C-0.09575309 114.49448826 -0.12188187 112.9844897 -0.12025452 111.47593689 C-0.12162918 110.49852036 -0.12300385 109.52110382 -0.12442017 108.5140686 C-0.12082489 107.43297821 -0.11722961 106.35188782 -0.11352539 105.23803711 C-0.11367142 104.1064769 -0.11381744 102.97491669 -0.1139679 101.80906677 C-0.11326819 98.04847329 -0.10547311 94.28792863 -0.09765625 90.52734375 C-0.09579227 87.92802457 -0.09436828 85.32870503 -0.09336853 82.72938538 C-0.08993341 76.57411423 -0.08204256 70.4188634 -0.07201904 64.26359993 C-0.06085694 57.25766654 -0.05534721 50.25173233 -0.05032361 43.24579227 C-0.03985992 28.83051867 -0.02226108 14.41525996 0 0 Z " fill="#05363F" transform="translate(173,0)"/>
<path d="M0 0 C0.33 0 0.66 0 1 0 C1.33 37.29 1.66 74.58 2 113 C95.555 113.495 95.555 113.495 191 114 C190.67 112.02 190.34 110.04 190 108 C189.92885704 106.3941328 189.900849 104.78572913 189.91770935 103.17837524 C189.92474884 102.26139862 189.93178833 101.344422 189.93904114 100.3996582 C189.95198715 99.4113501 189.96493317 98.42304199 189.97827148 97.40478516 C189.98787903 96.35052338 189.99748657 95.2962616 190.00738525 94.21005249 C190.04028297 90.73631924 190.08065046 87.2627154 190.12109375 83.7890625 C190.14540388 81.37625582 190.16924699 78.96344439 190.19264221 76.55062866 C190.25539424 70.2081358 190.32448606 63.86572726 190.39489746 57.52331543 C190.46566114 51.04813468 190.53043001 44.57289427 190.59570312 38.09765625 C190.72460099 25.39837226 190.85999278 12.69916612 191 0 C191.66 0 192.32 0 193 0 C193 37.95 193 75.9 193 115 C129.31 115 65.62 115 0 115 C0 77.05 0 39.1 0 0 Z " fill="#16899C" transform="translate(175,0)"/>
<path d="M0 0 C0.93663483 0.00960754 1.87326965 0.01921509 2.83828735 0.02911377 C5.9441868 0.06217991 9.04994891 0.10248322 12.15576172 0.14282227 C14.30524201 0.16711594 16.45472744 0.19095987 18.60421753 0.21437073 C24.26944811 0.27728654 29.93458825 0.34633192 35.59973145 0.41662598 C41.37748079 0.48724179 47.1552944 0.55209913 52.93310547 0.61743164 C64.27562401 0.74654059 75.61805538 0.88212088 86.96044922 1.02172852 C86.13957446 5.31070096 84.37742688 6.62908726 80.89794922 9.27172852 C79.51929688 10.33133789 79.51929688 10.33133789 78.11279297 11.41235352 C77.40251953 11.94344727 76.69224609 12.47454102 75.96044922 13.02172852 C75.46544922 11.04172852 75.46544922 11.04172852 74.96044922 9.02172852 C76.28044922 9.02172852 77.60044922 9.02172852 78.96044922 9.02172852 C79.26982422 8.38235352 79.57919922 7.74297852 79.89794922 7.08422852 C80.96044922 5.02172852 80.96044922 5.02172852 81.96044922 4.02172852 C51.93044922 3.69172852 21.90044922 3.36172852 -9.03955078 3.02172852 C-9.03955078 31.73172852 -9.03955078 60.44172852 -9.03955078 90.02172852 C-8.37955078 90.02172852 -7.71955078 90.02172852 -7.03955078 90.02172852 C-7.03955078 89.36172852 -7.03955078 88.70172852 -7.03955078 88.02172852 C-6.33443359 87.6027832 -5.62931641 87.18383789 -4.90283203 86.75219727 C-1.52220342 84.70906156 1.04983714 82.15186784 3.77294922 79.33422852 C4.27503906 78.82311523 4.77712891 78.31200195 5.29443359 77.78540039 C6.52108431 76.5353849 7.74142413 75.27918172 8.96044922 74.02172852 C10.44544922 74.51672852 10.44544922 74.51672852 11.96044922 75.02172852 C11.27982422 75.51672852 10.59919922 76.01172852 9.89794922 76.52172852 C7.52395837 78.54214626 5.70226804 80.41311788 3.71044922 82.77172852 C-0.13630262 87.26946913 -4.33443862 91.41862837 -9.03955078 95.02172852 C-9.69955078 95.02172852 -10.35955078 95.02172852 -11.03955078 95.02172852 C-11.03955078 64.00172852 -11.03955078 32.98172852 -11.03955078 1.02172852 C-7.63276669 -0.68166353 -3.74420812 -0.05443419 0 0 Z " fill="#117084" transform="translate(381.03955078125,214.978271484375)"/>
<path d="M0 0 C0.33 0 0.66 0 1 0 C1.02332977 14.97686306 1.04097956 29.95372472 1.05181217 44.93060207 C1.05697496 51.88416081 1.06401734 58.83770827 1.07543945 65.79125977 C1.08644694 72.49557209 1.09227621 79.19987025 1.09487724 85.90419197 C1.09673202 88.46837613 1.10035364 91.03255962 1.10573006 93.59673882 C1.11293659 97.17445158 1.11399111 100.75211519 1.11352539 104.32983398 C1.11712067 105.40157364 1.12071594 106.47331329 1.12442017 107.57752991 C1.1230455 108.54653229 1.12167084 109.51553467 1.12025452 110.51390076 C1.12117631 111.36102851 1.1220981 112.20815626 1.12304783 113.08095455 C1 115 1 115 0 116 C-2.95246354 116.09526806 -5.88148421 116.12552452 -8.83422852 116.11352539 C-9.76096375 116.11367142 -10.68769897 116.11381744 -11.64251709 116.1139679 C-14.72133687 116.11326838 -17.80009697 116.10547421 -20.87890625 116.09765625 C-23.00740018 116.09579221 -25.13589453 116.09436824 -27.26438904 116.09336853 C-32.8786232 116.08954228 -38.49283168 116.07971108 -44.10705566 116.06866455 C-49.83113253 116.05845273 -55.55521353 116.0538714 -61.27929688 116.04882812 C-72.51954256 116.03808891 -83.75976915 116.0210112 -95 116 C-95.18359375 111.23144531 -95.18359375 111.23144531 -93.53125 109.1484375 C-92.52578125 108.27058594 -92.52578125 108.27058594 -91.5 107.375 C-87.31458946 103.4636783 -84.11571875 99.21528742 -80.8125 94.55078125 C-77.35091448 89.67919645 -73.83705033 85.59323739 -69 82 C-69.33 83.65 -69.66 85.3 -70 87 C-70.66 87 -71.32 87 -72 87 C-72.3403125 88.0828125 -72.3403125 88.0828125 -72.6875 89.1875 C-74.26335128 92.56432417 -76.20876616 94.55767039 -79 97 C-79.66 97 -80.32 97 -81 97 C-80.938125 98.1446875 -80.938125 98.1446875 -80.875 99.3125 C-81 102 -81 102 -83 105 C-84.4540625 105.680625 -84.4540625 105.680625 -85.9375 106.375 C-89.56117504 107.96003339 -89.56117504 107.96003339 -92 113 C-61.64 113.33 -31.28 113.66 0 114 C0 76.38 0 38.76 0 0 Z " fill="#03212B" transform="translate(171,1)"/>
<path d="M0 0 C0.99 0 1.98 0 3 0 C3 37.95 3 75.9 3 115 C-27.69 115 -58.38 115 -90 115 C-88.68 112.69 -87.36 110.38 -86 108 C-85.67 108.66 -85.34 109.32 -85 110 C-85.66 110.99 -86.32 111.98 -87 113 C-57.96 113.33 -28.92 113.66 1 114 C1 78.69 1 43.38 1 7 C-0.65 7.66 -2.3 8.32 -4 9 C-4.34153937 10.66500443 -4.67449498 12.33178677 -5 14 C-6.64333504 15.03789581 -8.31243867 16.03567924 -10 17 C-10.515625 17.86625 -11.03125 18.7325 -11.5625 19.625 C-13 22 -13 22 -15.08984375 22.6484375 C-16.03537109 22.82246094 -16.03537109 22.82246094 -17 23 C-13.16621888 16.4825721 -9.31090576 10.85844669 -3.69921875 5.75390625 C-1.94491779 3.94314503 -0.99634057 2.30119269 0 0 Z " fill="#148FA3" transform="translate(168,0)"/>
<path d="M0 0 C11.94355615 0.10743128 23.88705093 0.22005042 35.83049488 0.33933926 C41.37598991 0.39456258 46.92149021 0.44798171 52.46704102 0.49731445 C57.81628257 0.54496662 63.16545932 0.59730985 68.51462364 0.65294075 C70.55799438 0.67336042 72.60138288 0.69207414 74.64478493 0.70907402 C77.50129254 0.73312651 80.35767748 0.76318008 83.21411133 0.79467773 C84.4883345 0.80331093 84.4883345 0.80331093 85.78829956 0.81211853 C89.10313002 0.8538137 91.83400182 0.94466727 95 2 C95 34.67 95 67.34 95 101 C94.67 101 94.34 101 94 101 C94 68.66 94 36.32 94 3 C63.31 3 32.62 3 1 3 C3.475 6.465 3.475 6.465 6 10 C3.15425032 8.72431911 0.81910019 7.58503711 -1 5 C-0.57421875 2.39453125 -0.57421875 2.39453125 0 0 Z " fill="#03252B" transform="translate(77,431)"/>
<path d="M0 0 C0.66 0 1.32 0 2 0 C2 36.96 2 73.92 2 112 C3.32 112.33 4.64 112.66 6 113 C5.505 113.495 5.505 113.495 5 114 C3.35 114 1.7 114 0 114 C0 76.38 0 38.76 0 0 Z " fill="#148097" transform="translate(370,0)"/>
<path d="M0 0 C5.61676428 1.37298682 5.61676428 1.37298682 7.36328125 4.23046875 C7.90339844 5.14441406 8.44351563 6.05835938 9 7 C10.75757829 8.94258653 12.51212318 10.792332 14.375 12.625 C15.07882813 13.34042969 15.07882813 13.34042969 15.796875 14.0703125 C18.00151753 16.26277468 20.08635441 18.05154394 22.76171875 19.6484375 C25 21 25 21 26.4375 24 C27.75399366 27.24368228 27.75399366 27.24368228 31 28.5 C34.83563872 30.41781936 35.10821737 32.21643473 37 36 C39.03619547 37.95084596 41.15397739 39.72318192 43.35546875 41.484375 C43.89816406 41.98453125 44.44085938 42.4846875 45 43 C45 43.66 45 44.32 45 45 C45.99 45 46.98 45 48 45 C48 40.71 48 36.42 48 32 C48.33 32 48.66 32 49 32 C49 37.61 49 43.22 49 49 C44.84712369 47.96178092 44.01423198 47.37937381 41.1875 44.4375 C40.48367187 43.70789063 39.77984375 42.97828125 39.0546875 42.2265625 C37.26438218 40.2864978 35.52813485 38.31834174 33.8125 36.3125 C30.55569999 32.51664344 27.05388146 29.01376993 23.5 25.5 C19.41128743 21.45733149 15.48197646 17.37642672 11.765625 12.984375 C8.65942661 9.49333787 5.28398986 6.26678593 1.94140625 3.00390625 C0 1 0 1 0 0 Z " fill="#094F5B" transform="translate(122,483)"/>
<path d="M0 0 C29.7 0 59.4 0 90 0 C90 0.33 90 0.66 90 1 C61.95 1.33 33.9 1.66 5 2 C8.37304155 10.10016276 8.37304155 10.10016276 15.1875 15 C17.79254647 16.43726702 18.10463019 18.24501596 19 21 C19.33 21.66 19.66 22.32 20 23 C17.13302508 21.71480435 15.02392288 20.42870746 13 18 C13 17.34 13 16.68 13 16 C12.34 16 11.68 16 11 16 C6.2692792 11.40607113 2.09996536 6.29989608 0 0 Z " fill="#0C91AD" transform="translate(79,435)"/>
<path d="M0 0 C0.99 0.33 1.98 0.66 3 1 C-2.59013194 6.09323132 -8.57815666 10.02872433 -15 14 C-18.9254505 16.44090979 -18.9254505 16.44090979 -22.41918945 19.44067383 C-24.10288389 21.10148563 -25.83833994 22.37007116 -27.79296875 23.69921875 C-28.8612793 24.42915039 -28.8612793 24.42915039 -29.95117188 25.17382812 C-30.68916016 25.67333984 -31.42714844 26.17285156 -32.1875 26.6875 C-32.93708984 27.19861328 -33.68667969 27.70972656 -34.45898438 28.23632812 C-36.30404287 29.49378837 -38.15108211 30.74822446 -40 32 C-40.66 31.67 -41.32 31.34 -42 31 C-41.36191406 30.44570312 -40.72382813 29.89140625 -40.06640625 29.3203125 C-39.24011719 28.59585938 -38.41382813 27.87140625 -37.5625 27.125 C-36.73878906 26.40570313 -35.91507812 25.68640625 -35.06640625 24.9453125 C-32.94017845 23.16761255 -32.94017845 23.16761255 -32 21 C-31.34 21 -30.68 21 -30 21 C-30 20.01 -30 19.02 -30 18 C-26.04 17.505 -26.04 17.505 -22 17 C-22 16.34 -22 15.68 -22 15 C-20.35 14.67 -18.7 14.34 -17 14 C-16.34 12.02 -15.68 10.04 -15 8 C-11.7 7.34 -8.4 6.68 -5 6 C-4.67 5.01 -4.34 4.02 -4 3 C-1.9375 2.3125 -1.9375 2.3125 0 2 C0 1.34 0 0.68 0 0 Z " fill="#0B616E" transform="translate(418,80)"/>
<path d="M0 0 C2.05078125 0.03255208 4.1015625 0.06510417 6.15234375 0.09765625 C6.15234375 1.08765625 6.15234375 2.07765625 6.15234375 3.09765625 C4.02734375 4.7109375 4.02734375 4.7109375 1.15234375 6.41015625 C-3.21847925 9.06084891 -7.29222743 11.84873892 -11.2890625 15.03125 C-12.84765625 16.09765625 -12.84765625 16.09765625 -14.84765625 16.09765625 C-14.84765625 16.75765625 -14.84765625 17.41765625 -14.84765625 18.09765625 C-17.04296875 19.68359375 -17.04296875 19.68359375 -19.97265625 21.47265625 C-20.97167969 22.09011719 -21.97070312 22.70757813 -23 23.34375 C-23.93972656 23.92253906 -24.87945312 24.50132813 -25.84765625 25.09765625 C-27.86199688 26.41135666 -29.85498021 27.75125352 -31.84765625 29.09765625 C-31.18765625 27.44765625 -30.52765625 25.79765625 -29.84765625 24.09765625 C-28.85765625 24.09765625 -27.86765625 24.09765625 -26.84765625 24.09765625 C-26.84765625 23.43765625 -26.84765625 22.77765625 -26.84765625 22.09765625 C-25.85765625 21.76765625 -24.86765625 21.43765625 -23.84765625 21.09765625 C-22.88859375 19.82921875 -22.88859375 19.82921875 -21.91015625 18.53515625 C-21.22953125 17.73078125 -20.54890625 16.92640625 -19.84765625 16.09765625 C-18.52765625 16.09765625 -17.20765625 16.09765625 -15.84765625 16.09765625 C-15.84765625 15.10765625 -15.84765625 14.11765625 -15.84765625 13.09765625 C-14.52765625 13.09765625 -13.20765625 13.09765625 -11.84765625 13.09765625 C-11.84765625 12.43765625 -11.84765625 11.77765625 -11.84765625 11.09765625 C-10.85765625 11.09765625 -9.86765625 11.09765625 -8.84765625 11.09765625 C-8.51765625 10.10765625 -8.18765625 9.11765625 -7.84765625 8.09765625 C-7.18765625 7.80890625 -6.52765625 7.52015625 -5.84765625 7.22265625 C-5.18765625 6.85140625 -4.52765625 6.48015625 -3.84765625 6.09765625 C-3.11025408 3.57816847 -3.11025408 3.57816847 -2.84765625 1.09765625 C-1.84765625 0.09765625 -1.84765625 0.09765625 0 0 Z " fill="#0A5967" transform="translate(525.84765625,-0.09765625)"/>
<path d="M0 0 C0.99 0 1.98 0 3 0 C3 37.95 3 75.9 3 115 C2.67 115 2.34 115 2 115 C2 78.37 2 41.74 2 4 C1.01 4 0.02 4 -1 4 C-0.67 2.68 -0.34 1.36 0 0 Z " fill="#137C8F" transform="translate(168,0)"/>
<path d="M0 0 C0 3 0 3 -2.01171875 5.33984375 C-3.33623047 6.62568359 -3.33623047 6.62568359 -4.6875 7.9375 C-5.55761719 8.79214844 -6.42773438 9.64679688 -7.32421875 10.52734375 C-10 13 -10 13 -12.6953125 15.14453125 C-14.97843072 16.9826349 -16.58387536 18.99060126 -18.3984375 21.2734375 C-21.83407506 24.97722238 -25.99732805 27.93776165 -30 31 C-30.33 29.68 -30.66 28.36 -31 27 C-30.28199219 26.61199219 -29.56398438 26.22398437 -28.82421875 25.82421875 C-25.68599358 23.79717704 -23.38816188 21.51285353 -20.8125 18.8125 C-19.24634232 17.17120432 -17.65021767 15.55675401 -16 14 C-15.34 14 -14.68 14 -14 14 C-14 12.68 -14 11.36 -14 10 C-13.113125 9.79375 -12.22625 9.5875 -11.3125 9.375 C-7.04948481 7.60544653 -5.79479072 5.62567444 -3 2 C-2.01 1.34 -1.02 0.68 0 0 Z " fill="#0B616B" transform="translate(437,245)"/>
<path d="M0 0 C0.33 0.99 0.66 1.98 1 3 C0.525625 3.350625 0.05125 3.70125 -0.4375 4.0625 C-2.3243404 6.00741889 -2.3243404 6.00741889 -2.125 9.25 C-3.30424045 14.30388763 -5.82374928 15.65344689 -9.96875 18.51953125 C-12.11382613 19.84481558 -12.11382613 19.84481558 -13 22 C-13.7425 22.433125 -14.485 22.86625 -15.25 23.3125 C-18.31145976 25.19112304 -20.53949863 27.39889855 -23 30 C-21.54846565 26.8152903 -19.76471503 24.27749691 -17.5625 21.5625 C-16.85996094 20.69625 -16.15742187 19.83 -15.43359375 18.9375 C-12.21744599 15.05540832 -8.96300967 11.20648184 -5.68188477 7.37915039 C-3.63469613 4.98250442 -1.75121194 2.62681791 0 0 Z " fill="#097080" transform="translate(125,53)"/>
<path d="M0 0 C-1.2065625 0.4021875 -1.2065625 0.4021875 -2.4375 0.8125 C-3.283125 1.204375 -4.12875 1.59625 -5 2 C-5.33 2.99 -5.66 3.98 -6 5 C-8.0390625 6.68359375 -8.0390625 6.68359375 -10.625 8.4375 C-11.53507812 9.05625 -12.44515625 9.675 -13.3828125 10.3125 C-15.39709987 11.61126439 -17.39100939 12.80732321 -19.5 13.9375 C-23.65382573 16.19243397 -27.15350395 19.26978048 -30.765625 22.29296875 C-33 24 -33 24 -36 25 C-34.9024777 22.00675737 -34.32317108 21.15389099 -31.375 19.75 C-30.59125 19.5025 -29.8075 19.255 -29 19 C-29 18.34 -29 17.68 -29 17 C-26.87175005 14.45697929 -24.44912838 12.96191543 -21.5625 11.375 C-20.41974609 10.73691406 -20.41974609 10.73691406 -19.25390625 10.0859375 C-17 9 -17 9 -14.765625 8.4609375 C-14.18296875 8.30882812 -13.6003125 8.15671875 -13 8 C-12.731875 7.4225 -12.46375 6.845 -12.1875 6.25 C-9.68944305 1.51683947 -5.28780391 -1.89848467 0 0 Z " fill="#0C5766" transform="translate(493,30)"/>
<path d="M0 0 C0.33 0.66 0.66 1.32 1 2 C0.01 3.485 0.01 3.485 -1 5 C-1.66 5 -2.32 5 -3 5 C-3.11730469 5.5671875 -3.23460937 6.134375 -3.35546875 6.71875 C-5.2742872 13.51020439 -9.34744008 19.89977805 -15.5 23.4375 C-18.37639484 25.23524678 -20.01292158 27.27696661 -22 30 C-22.66 29.67 -23.32 29.34 -24 29 C-23.2265625 28.11699219 -22.453125 27.23398437 -21.65625 26.32421875 C-16.02012775 19.84485427 -10.61431276 13.36889868 -5.71875 6.3046875 C-3.98136597 3.97501345 -2.10256797 2.00112829 0 0 Z " fill="#0A6779" transform="translate(150,23)"/>
<path d="M0 0 C2.3125 0.625 2.3125 0.625 5 2 C5.433125 2.886875 5.86625 3.77375 6.3125 4.6875 C8.35049256 8.68800391 10.89184736 10.71347789 14.35546875 13.484375 C14.89816406 13.98453125 15.44085938 14.4846875 16 15 C16 15.66 16 16.32 16 17 C16.99 17 17.98 17 19 17 C19 12.71 19 8.42 19 4 C19.33 4 19.66 4 20 4 C20 9.61 20 15.22 20 21 C14.37552862 19.59388215 11.85883654 16.16309096 8 12 C7.4121875 11.36964844 6.824375 10.73929688 6.21875 10.08984375 C3.36387569 6.90609911 1.26376919 4.17043831 0 0 Z " fill="#115E6F" transform="translate(151,511)"/>
<path d="M0 0 C0.33 0.99 0.66 1.98 1 3 C0.67 3.66 0.34 4.32 0 5 C-0.66 5 -1.32 5 -2 5 C-2.226875 5.721875 -2.45375 6.44375 -2.6875 7.1875 C-4.26335128 10.56432417 -6.20876616 12.55767039 -9 15 C-9.66 15 -10.32 15 -11 15 C-10.938125 16.1446875 -10.938125 16.1446875 -10.875 17.3125 C-11 20 -11 20 -13 23 C-13.99 23 -14.98 23 -16 23 C-15.53251888 18.18134845 -13.1879552 15.15970721 -10.25 11.5 C-9.81945312 10.94441406 -9.38890625 10.38882813 -8.9453125 9.81640625 C-6.17544167 6.29187002 -3.22672659 3.11065729 0 0 Z " fill="#0A5869" transform="translate(101,83)"/>
<path d="M0 0 C0.99 0.33 1.98 0.66 3 1 C2.319375 1.495 1.63875 1.99 0.9375 2.5 C-1.43649085 4.52041775 -3.25818118 6.39138936 -5.25 8.75 C-9.09675184 13.24774061 -13.29488784 17.39689985 -18 21 C-18.66 21 -19.32 21 -20 21 C-19.67 18.36 -19.34 15.72 -19 13 C-18.67 13.99 -18.34 14.98 -18 16 C-17.34 16 -16.68 16 -16 16 C-16 15.34 -16 14.68 -16 14 C-15.29488281 13.58105469 -14.58976562 13.16210938 -13.86328125 12.73046875 C-10.48265264 10.68733304 -7.91061207 8.13013933 -5.1875 5.3125 C-4.68541016 4.80138672 -4.18332031 4.29027344 -3.66601562 3.76367188 C-2.43936491 2.51365638 -1.21902509 1.2574532 0 0 Z " fill="#075764" transform="translate(390,289)"/>
<path d="M0 0 C12.54 0 25.08 0 38 0 C38 1.32 38 2.64 38 4 C36.03125 5.921875 36.03125 5.921875 33.5 7.75 C32.24703125 8.67039063 32.24703125 8.67039063 30.96875 9.609375 C30.3190625 10.06828125 29.669375 10.5271875 29 11 C28.67 9.68 28.34 8.36 28 7 C29.32 7 30.64 7 32 7 C32.309375 6.360625 32.61875 5.72125 32.9375 5.0625 C34 3 34 3 35 2 C23.45 1.67 11.9 1.34 0 1 C0 0.67 0 0.34 0 0 Z " fill="#148196" transform="translate(428,217)"/>
<path d="M0 0 C1 2 1 2 0.375 4.9375 C-1.25945576 8.57787873 -2.60506756 9.0955257 -6 11 C-6.515625 11.86625 -7.03125 12.7325 -7.5625 13.625 C-9 16 -9 16 -11.08984375 16.6484375 C-12.03537109 16.82246094 -12.03537109 16.82246094 -13 17 C-9.17939726 10.64740017 -5.52156539 4.98287609 0 0 Z " fill="#0A6673" transform="translate(164,6)"/>
<path d="M0 0 C2.05078125 0.03255208 4.1015625 0.06510417 6.15234375 0.09765625 C6.15234375 1.08765625 6.15234375 2.07765625 6.15234375 3.09765625 C3.40234375 5.34765625 3.40234375 5.34765625 0.15234375 7.09765625 C-2.22265625 6.84765625 -2.22265625 6.84765625 -3.84765625 6.09765625 C-2.77957394 0.14691194 -2.77957394 0.14691194 0 0 Z " fill="#0D7487" transform="translate(525.84765625,-0.09765625)"/>
<path d="M0 0 C-0.49371094 0.32613281 -0.98742187 0.65226562 -1.49609375 0.98828125 C-2.45708984 1.64376953 -2.45708984 1.64376953 -3.4375 2.3125 C-4.07558594 2.74175781 -4.71367187 3.17101562 -5.37109375 3.61328125 C-7.2885684 5.0034052 -7.2885684 5.0034052 -8 8 C-10.06640625 9.60546875 -10.06640625 9.60546875 -12.5625 11.1875 C-13.38878906 11.71730469 -14.21507812 12.24710938 -15.06640625 12.79296875 C-15.70449219 13.19128906 -16.34257812 13.58960937 -17 14 C-17.66 13.67 -18.32 13.34 -19 13 C-18.36191406 12.44570312 -17.72382813 11.89140625 -17.06640625 11.3203125 C-16.24011719 10.59585938 -15.41382813 9.87140625 -14.5625 9.125 C-13.32693359 8.04605469 -13.32693359 8.04605469 -12.06640625 6.9453125 C-9.94017845 5.16761255 -9.94017845 5.16761255 -9 3 C-8.34 3 -7.68 3 -7 3 C-7 2.01 -7 1.02 -7 0 C-3.86650268 -1.04449911 -3.01031744 -0.93423645 0 0 Z " fill="#118A9F" transform="translate(395,98)"/>
<path d="M0 0 C0.33 0.99 0.66 1.98 1 3 C0.54625 3.391875 0.0925 3.78375 -0.375 4.1875 C-2.14309476 5.92449377 -2.14309476 5.92449377 -2.8125 8.34375 C-4.24169431 11.540632 -5.96008515 13.06635748 -8.625 15.3125 C-9.44226563 16.00988281 -10.25953125 16.70726563 -11.1015625 17.42578125 C-12.04128906 18.20501953 -12.04128906 18.20501953 -13 19 C-13.66 18.67 -14.32 18.34 -15 18 C-14.41992188 17.3709375 -13.83984375 16.741875 -13.2421875 16.09375 C-8.52298491 10.92287456 -4.06245589 5.70336945 0 0 Z " fill="#0B5767" transform="translate(125,53)"/>
<path d="M0 0 C0.33 0.99 0.66 1.98 1 3 C-0.2065625 4.175625 -0.2065625 4.175625 -1.4375 5.375 C-3.98690417 7.71982856 -3.98690417 7.71982856 -5 10 C1.93 10.495 1.93 10.495 9 11 C9 11.33 9 11.66 9 12 C3.39 12 -2.22 12 -8 12 C-7.01174407 7.05872037 -6.82992043 6.33319895 -3.4375 3.1875 C-2.79683594 2.58292969 -2.15617187 1.97835937 -1.49609375 1.35546875 C-1.00238281 0.90816406 -0.50867188 0.46085937 0 0 Z " fill="#0C525B" transform="translate(84,104)"/>
<path d="M0 0 C1 2 1 2 0.5 4.1875 C-1.63234029 8.18563804 -4.71719372 10.92624034 -8 14 C-8.66 14.66 -9.32 15.32 -10 16 C-10.6875 14.1875 -10.6875 14.1875 -11 12 C-9.75 10.4375 -9.75 10.4375 -8 9 C-7.505 8.505 -7.01 8.01 -6.5 7.5 C-5.48952964 6.48952964 -4.46837755 5.48964245 -3.4375 4.5 C-1.77629047 2.85424985 -1.77629047 2.85424985 0 0 Z " fill="#0B91A3" transform="translate(158,16)"/>
<path d="M0 0 C0.33 0 0.66 0 1 0 C1.33 9.57 1.66 19.14 2 29 C3.32 29.66 4.64 30.32 6 31 C5.67 31.33 5.34 31.66 5 32 C3.35 32 1.7 32 0 32 C0 21.44 0 10.88 0 0 Z " fill="#177B91" transform="translate(370,82)"/>
<path d="M0 0 C3.83511953 1.56245611 6.10365784 4.10365784 9 7 C9.721875 7.33 10.44375 7.66 11.1875 8 C13.79254647 9.43726702 14.10463019 11.24501596 15 14 C15.33 14.66 15.66 15.32 16 16 C13.13302508 14.71480435 11.02392288 13.42870746 9 11 C9 10.34 9 9.68 9 9 C8.34 9 7.68 9 7 9 C5.2734375 7.28515625 5.2734375 7.28515625 3.375 5.0625 C2.74335937 4.33160156 2.11171875 3.60070312 1.4609375 2.84765625 C0 1 0 1 0 0 Z " fill="#0A5967" transform="translate(83,442)"/>
<path d="M0 0 C0.99 0.33 1.98 0.66 3 1 C1.59106853 2.63171123 0.17254042 4.25513945 -1.25 5.875 C-2.03890625 6.77992188 -2.8278125 7.68484375 -3.640625 8.6171875 C-5.74691403 10.74439993 -7.25651526 11.90512306 -10 13 C-9.67 11.68 -9.34 10.36 -9 9 C-8.01 9 -7.02 9 -6 9 C-6 8.01 -6 7.02 -6 6 C-4.34467377 4.98133771 -2.67739862 3.98189187 -1 3 C-0.67 2.01 -0.34 1.02 0 0 Z " fill="#0A4F5D" transform="translate(403,276)"/>
<path d="M0 0 C0.99 0 1.98 0 3 0 C3 7.59 3 15.18 3 23 C2.67 23 2.34 23 2 23 C2 16.73 2 10.46 2 4 C1.01 4 0.02 4 -1 4 C-0.67 2.68 -0.34 1.36 0 0 Z " fill="#146976" transform="translate(168,0)"/>
<path d="M0 0 C0.33 1.32 0.66 2.64 1 4 C0.0409375 4.37125 0.0409375 4.37125 -0.9375 4.75 C-3.18476569 5.78364885 -3.18476569 5.78364885 -3.5 7.9375 C-3.665 8.618125 -3.83 9.29875 -4 10 C-6.0625 11.75 -6.0625 11.75 -8 13 C-6.63589551 7.40717158 -3.84616474 4.08806189 0 0 Z " fill="#0E8A9F" transform="translate(109,75)"/>
<path d="M0 0 C0 3 0 3 -2.1875 5.48046875 C-3.115625 6.37378906 -4.04375 7.26710937 -5 8.1875 C-5.928125 9.08855469 -6.85625 9.98960937 -7.8125 10.91796875 C-8.534375 11.60503906 -9.25625 12.29210937 -10 13 C-10.66 12.67 -11.32 12.34 -12 12 C-10.56665422 10.37133456 -9.12817021 8.74719006 -7.6875 7.125 C-6.88699219 6.22007812 -6.08648437 5.31515625 -5.26171875 4.3828125 C-3 2 -3 2 0 0 Z " fill="#065565" transform="translate(437,245)"/>
<path d="M0 0 C2.3125 0.625 2.3125 0.625 5 2 C6.6875 4.9375 6.6875 4.9375 8 8 C8.99 9.485 8.99 9.485 10 11 C5.56719013 9.10022434 2.76069851 6.67353673 0.75 2.25 C0.5025 1.5075 0.255 0.765 0 0 Z " fill="#0D7280" transform="translate(151,511)"/>
<path d="M0 0 C0.33 0.66 0.66 1.32 1 2 C0.01 3.485 0.01 3.485 -1 5 C-1.66 5 -2.32 5 -3 5 C-3.103125 5.598125 -3.20625 6.19625 -3.3125 6.8125 C-4.08876455 9.28243264 -5.07088921 10.32251235 -7 12 C-7.66 11.67 -8.32 11.34 -9 11 C-6.22364768 6.98971331 -3.59478807 3.32850747 0 0 Z " fill="#084452" transform="translate(150,23)"/>
<path d="M0 0 C0.99 0.33 1.98 0.66 3 1 C-4.11389522 7.51936219 -4.11389522 7.51936219 -9 9 C-8.67 8.01 -8.34 7.02 -8 6 C-7.01 6 -6.02 6 -5 6 C-4.67 5.01 -4.34 4.02 -4 3 C-1.9375 2.3125 -1.9375 2.3125 0 2 C0 1.34 0 0.68 0 0 Z " fill="#074C57" transform="translate(418,80)"/>
<path d="M0 0 C0.99 0.33 1.98 0.66 3 1 C1.5665848 2.15093925 0.12811091 3.29558035 -1.3125 4.4375 C-2.51326172 5.39462891 -2.51326172 5.39462891 -3.73828125 6.37109375 C-6 8 -6 8 -9 9 C-7.9024777 6.00675737 -7.32317108 5.15389099 -4.375 3.75 C-3.59125 3.5025 -2.8075 3.255 -2 3 C-2 2.34 -2 1.68 -2 1 C-1.34 0.67 -0.68 0.34 0 0 Z " fill="#09506A" transform="translate(466,46)"/>
<path d="M0 0 C0.33 0.99 0.66 1.98 1 3 C1.66 3 2.32 3 3 3 C3 2.34 3 1.68 3 1 C3.99 1.33 4.98 1.66 6 2 C4.38405168 4.04119788 2.7143618 6.04072937 1 8 C0.34 8 -0.32 8 -1 8 C-0.67 5.36 -0.34 2.72 0 0 Z " fill="#106A76" transform="translate(371,302)"/>
<path d="M0 0 C1 4 1 4 -0.6875 7.1875 C-3 10 -3 10 -7 11 C-4.69 7.37 -2.38 3.74 0 0 Z " fill="#0C5368" transform="translate(158,12)"/>
<path d="M0 0 C1.32 0.33 2.64 0.66 4 1 C-1 7.57142857 -1 7.57142857 -6 9 C-4.71937515 7.2925002 -3.38232443 5.62626404 -2 4 C-1.34 4 -0.68 4 0 4 C0 2.68 0 1.36 0 0 Z " fill="#107584" transform="translate(423,255)"/>
<path d="M0 0 C1.32 0.33 2.64 0.66 4 1 C-0.455 4.465 -0.455 4.465 -5 8 C-5.33 6.68 -5.66 5.36 -6 4 C-4.68 4 -3.36 4 -2 4 C-1.34 2.68 -0.68 1.36 0 0 Z " fill="#0E6573" transform="translate(462,220)"/>
<path d="M0 0 C0.33 0.66 0.66 1.32 1 2 C0.23883449 3.15227823 -0.53432693 4.2966386 -1.3125 5.4375 C-1.74175781 6.07558594 -2.17101562 6.71367188 -2.61328125 7.37109375 C-4 9 -4 9 -7 10 C-6.33333333 8.66666667 -5.66666667 7.33333333 -5 6 C-4.5359375 4.948125 -4.5359375 4.948125 -4.0625 3.875 C-3 2 -3 2 0 0 Z " fill="#0F8A9A" transform="translate(129,51)"/>
<path d="M0 0 C-3.63 2.31 -7.26 4.62 -11 7 C-10.34 5.35 -9.68 3.7 -9 2 C-8.01 2 -7.02 2 -6 2 C-6 1.34 -6 0.68 -6 0 C-3 -1 -3 -1 0 0 Z " fill="#0B4F5D" transform="translate(505,22)"/>
<path d="M0 0 C0.99 0.33 1.98 0.66 3 1 C2.21625 1.598125 1.4325 2.19625 0.625 2.8125 C-2.14574323 4.91085249 -2.14574323 4.91085249 -4 8 C-4.99 7.67 -5.98 7.34 -7 7 C-4.69 4.69 -2.38 2.38 0 0 Z " fill="#0D5D6C" transform="translate(390,289)"/>
<path d="M0 0 C0.99 0 1.98 0 3 0 C2.49396008 2.16874252 2.00016187 3.99967627 1 6 C0.01 6 -0.98 6 -2 6 C-1.125 1.125 -1.125 1.125 0 0 Z " fill="#0E758F" transform="translate(87,100)"/>
<path d="M0 0 C-4.455 2.97 -4.455 2.97 -9 6 C-9.33 5.01 -9.66 4.02 -10 3 C-3.375 -1.125 -3.375 -1.125 0 0 Z " fill="#0B5A66" transform="translate(457,56)"/>
<path d="M0 0 C2.475 0.99 2.475 0.99 5 2 C5 2.66 5 3.32 5 4 C5.66 4 6.32 4 7 4 C6.67 5.32 6.34 6.64 6 8 C4.99403703 7.0479279 3.99538437 6.08812654 3 5.125 C2.443125 4.59132813 1.88625 4.05765625 1.3125 3.5078125 C0 2 0 2 0 0 Z " fill="#0D4958" transform="translate(115,475)"/>
<path d="M0 0 C1.32 0.33 2.64 0.66 4 1 C-0.455 3.97 -0.455 3.97 -5 7 C-5.66 6.67 -6.32 6.34 -7 6 C-5.93106782 4.96409662 -4.84421512 3.94666058 -3.75 2.9375 C-3.14671875 2.36902344 -2.5434375 1.80054687 -1.921875 1.21484375 C-1.28765625 0.81394531 -0.6534375 0.41304688 0 0 Z " fill="#08525E" transform="translate(383,105)"/>
<path d="M0 0 C2.9375 1.25 2.9375 1.25 6 3 C6.875 5.1875 6.875 5.1875 7 7 C3.535 5.02 3.535 5.02 0 3 C0 2.01 0 1.02 0 0 Z " fill="#107588" transform="translate(141,501)"/>
<path d="M0 0 C2.4375 0.6875 2.4375 0.6875 5 2 C5.8125 4.625 5.8125 4.625 6 7 C5.34 7 4.68 7 4 7 C0 2.52941176 0 2.52941176 0 0 Z " fill="#0E899C" transform="translate(79,435)"/>
<path d="M0 0 C0 0.66 0 1.32 0 2 C-2.97 3.65 -5.94 5.3 -9 7 C-6.98222181 2.96444362 -4.85744506 0 0 0 Z " fill="#074755" transform="translate(396,98)"/>
<path d="M0 0 C1.32 0 2.64 0 4 0 C3.67 1.32 3.34 2.64 3 4 C1.35 4.33 -0.3 4.66 -2 5 C-1.34 3.35 -0.68 1.7 0 0 Z " fill="#0E8093" transform="translate(166,4)"/>
<path d="M0 0 C0.66 0.33 1.32 0.66 2 1 C-3.625 6 -3.625 6 -7 6 C-7 5.34 -7 4.68 -7 4 C-1.7265625 0.77734375 -1.7265625 0.77734375 0 0 Z " fill="#0E6C7D" transform="translate(474,40)"/>
<path d="M0 0 C0 3 0 3 -1.3125 4.38671875 C-2.875 5.59114583 -4.4375 6.79557292 -6 8 C-6 6.68 -6 5.36 -6 4 C-3.5625 2.3125 -3.5625 2.3125 -1 1 C-0.67 0.67 -0.34 0.34 0 0 Z " fill="#094953" transform="translate(455,228)"/>
<path d="M0 0 C0.2475 0.61875 0.495 1.2375 0.75 1.875 C2.20628639 4.35068687 3.37812506 4.95125002 6 6 C5 7 5 7 2.4375 7.0625 C1.2309375 7.0315625 1.2309375 7.0315625 0 7 C0 4.69 0 2.38 0 0 Z " fill="#10717C" transform="translate(370,107)"/>
<path d="M0 0 C-1.25 1.5625 -1.25 1.5625 -3 3 C-5.1875 2.6875 -5.1875 2.6875 -7 2 C-7 1.34 -7 0.68 -7 0 C-2.25 -1.125 -2.25 -1.125 0 0 Z " fill="#107887" transform="translate(410,88)"/>
<path d="M0 0 C0.99 0.33 1.98 0.66 3 1 C1.6875 3 1.6875 3 0 5 C-0.99 5 -1.98 5 -3 5 C-1.125 1.125 -1.125 1.125 0 0 Z " fill="#117485" transform="translate(506,16)"/>
</svg>
